<?xml version="1.0" encoding="UTF-8"?>
<svg width="2053px" height="200px" viewBox="0 0 2053 200" version="1.1" xmlns="http://www.w3.org/2000/svg" xmlns:xlink="http://www.w3.org/1999/xlink">
    <title>oz_defender</title>
    <g id="exports" stroke="none" stroke-width="1" fill="none" fill-rule="evenodd">
        <g id="oz_defender">
            <g id="Group-7-Copy-4" transform="translate(-0.000000, 0.498711)">
                <path d="M177.991954,198.419689 L177.991954,146.81311 L122.119285,146.81311 C106.924972,146.81311 92.8503413,154.835948 85.0682745,167.934095 L66.9546157,198.419689 L177.991954,198.419689 Z" id="Stroke-1" fill="#63D2F9"></path>
                <polygon id="Stroke-3" fill="#4E5EE4" points="0.164738543 0.165438784 0.164738543 51.7720182 147.328534 51.7720182 177.992053 0.165438784"></polygon>
                <path d="M70.5957726,80.8186491 L0.326774294,198.419789 L60.1943036,198.419789 L144.223486,57.7266897 L111.164369,57.7266897 C94.5359284,57.7266897 79.1306662,66.4955077 70.5957726,80.8186491 Z" id="Stroke-5" fill="#63B0F9"></path>
            </g>
            <path d="M1435.878,149.33595 C1451.924,149.33595 1459.592,138.54395 1461.438,135.84595 L1462.29,135.84595 L1462.29,147.48995 L1473.082,147.48995 L1473.082,40.9899497 L1461.864,40.9899497 L1461.864,85.5779497 L1461.012,85.5779497 C1458.74,81.7439497 1450.504,71.8039497 1435.026,71.8039497 C1414.152,71.8039497 1399.1,87.9919497 1399.1,110.71195 C1399.1,133.28995 1414.152,149.33595 1435.878,149.33595 Z M1436.588,139.25395 C1421.11,139.25395 1410.602,128.03595 1410.602,110.71195 C1410.602,93.9559497 1421.11,82.0279497 1436.304,82.0279497 C1450.93,82.0279497 1462.29,92.5359497 1462.29,110.71195 C1462.29,126.18995 1452.634,139.25395 1436.588,139.25395 Z M1531.09163,149.33595 C1548.41563,149.33595 1561.33763,139.53795 1565.45563,125.76395 L1553.81163,125.76395 C1550.40363,134.42595 1541.03163,139.11195 1531.23363,139.11195 C1516.03963,139.11195 1506.52563,129.31395 1505.95763,114.54595 L1566.16563,114.54595 L1566.16563,109.57595 C1566.16563,88.2759497 1552.81763,71.8039497 1530.38163,71.8039497 C1510.21763,71.8039497 1494.17163,86.9979497 1494.17163,110.56995 C1494.17163,132.72195 1508.51363,149.33595 1531.09163,149.33595 Z M1554.23763,104.60595 L1506.24163,104.60595 C1507.37763,90.9739497 1518.02763,82.0279497 1530.38163,82.0279497 C1542.87763,82.0279497 1553.24363,89.8379497 1554.23763,104.60595 Z M1605.28926,147.48995 L1605.28926,83.1639497 L1626.87326,83.1639497 L1626.87326,73.6499497 L1605.28926,73.6499497 L1605.28926,64.9879497 C1605.28926,57.0359497 1609.26526,50.7879497 1619.20526,50.7879497 L1626.30526,50.7879497 L1626.30526,40.9899497 L1619.34726,40.9899497 C1604.43726,40.9899497 1594.07126,49.9359497 1594.07126,64.8459497 L1594.07126,73.6499497 L1580.15526,73.6499497 L1580.15526,83.1639497 L1594.07126,83.1639497 L1594.07126,147.48995 L1605.28926,147.48995 Z M1675.65289,149.33595 C1692.97689,149.33595 1705.89889,139.53795 1710.01689,125.76395 L1698.37289,125.76395 C1694.96489,134.42595 1685.59289,139.11195 1675.79489,139.11195 C1660.60089,139.11195 1651.08689,129.31395 1650.51889,114.54595 L1710.72689,114.54595 L1710.72689,109.57595 C1710.72689,88.2759497 1697.37889,71.8039497 1674.94289,71.8039497 C1654.77889,71.8039497 1638.73289,86.9979497 1638.73289,110.56995 C1638.73289,132.72195 1653.07489,149.33595 1675.65289,149.33595 Z M1698.79889,104.60595 L1650.80289,104.60595 C1651.93889,90.9739497 1662.58889,82.0279497 1674.94289,82.0279497 C1687.43889,82.0279497 1697.80489,89.8379497 1698.79889,104.60595 Z M1744.45452,147.48995 L1744.45452,103.46995 C1744.45452,91.2579497 1753.54252,82.3119497 1765.18652,82.3119497 C1775.55252,82.3119497 1784.21452,89.9799497 1784.21452,101.76595 L1784.21452,147.48995 L1795.43252,147.48995 L1795.43252,101.05595 C1795.43252,84.7259497 1785.06652,71.8039497 1767.88452,71.8039497 C1756.38252,71.8039497 1748.43052,77.7679497 1745.30652,84.4419497 L1744.45452,84.4419497 L1744.45452,73.6499497 L1733.23652,73.6499497 L1733.23652,147.48995 L1744.45452,147.48995 Z M1853.30015,149.33595 C1869.34615,149.33595 1877.01415,138.54395 1878.86015,135.84595 L1879.71215,135.84595 L1879.71215,147.48995 L1890.50415,147.48995 L1890.50415,40.9899497 L1879.28615,40.9899497 L1879.28615,85.5779497 L1878.43415,85.5779497 C1876.16215,81.7439497 1867.92615,71.8039497 1852.44815,71.8039497 C1831.57415,71.8039497 1816.52215,87.9919497 1816.52215,110.71195 C1816.52215,133.28995 1831.57415,149.33595 1853.30015,149.33595 Z M1854.01015,139.25395 C1838.53215,139.25395 1828.02415,128.03595 1828.02415,110.71195 C1828.02415,93.9559497 1838.53215,82.0279497 1853.72615,82.0279497 C1868.35215,82.0279497 1879.71215,92.5359497 1879.71215,110.71195 C1879.71215,126.18995 1870.05615,139.25395 1854.01015,139.25395 Z M1948.51378,149.33595 C1965.83778,149.33595 1978.75978,139.53795 1982.87778,125.76395 L1971.23378,125.76395 C1967.82578,134.42595 1958.45378,139.11195 1948.65578,139.11195 C1933.46178,139.11195 1923.94778,129.31395 1923.37978,114.54595 L1983.58778,114.54595 L1983.58778,109.57595 C1983.58778,88.2759497 1970.23978,71.8039497 1947.80378,71.8039497 C1927.63978,71.8039497 1911.59378,86.9979497 1911.59378,110.56995 C1911.59378,132.72195 1925.93578,149.33595 1948.51378,149.33595 Z M1971.65978,104.60595 L1923.66378,104.60595 C1924.79978,90.9739497 1935.44978,82.0279497 1947.80378,82.0279497 C1960.29978,82.0279497 1970.66578,89.8379497 1971.65978,104.60595 Z M2017.31541,147.48995 L2017.31541,109.43395 C2017.31541,95.3759497 2024.84141,84.8679497 2038.33141,84.8679497 L2044.43741,84.8679497 L2044.43741,73.6499497 L2038.18941,73.6499497 C2027.39741,73.6499497 2020.15541,81.1759497 2018.02541,87.4239497 L2017.17341,87.4239497 L2017.17341,73.6499497 L2006.09741,73.6499497 L2006.09741,147.48995 L2017.31541,147.48995 Z" id="defender" fill="#282846" fill-rule="nonzero" opacity="0.9"></path>
            <path d="M305.362,149.399166 C275.258,149.399166 253.106,127.389166 253.106,97.8531658 C253.106,68.6011658 275.4,46.3071658 305.504,46.3071658 C335.608,46.3071658 357.902,68.8851658 357.902,97.8531658 C357.902,127.105166 335.466,149.399166 305.362,149.399166 Z M305.504,131.365166 C324.532,131.365166 338.164,117.165166 338.164,97.8531658 C338.164,78.8251658 324.532,64.3411658 305.504,64.3411658 C286.334,64.3411658 272.702,78.8251658 272.702,97.8531658 C272.702,117.165166 286.334,131.365166 305.504,131.365166 Z M378.060754,180.213166 L378.060754,72.8611658 L396.236754,72.8611658 L396.236754,82.3751658 L397.230754,82.3751658 C399.218754,79.2511658 406.034754,71.0151658 419.666754,71.0151658 C440.540754,71.0151658 454.882754,86.6351658 454.882754,109.923166 C454.882754,133.211166 440.682754,149.399166 420.234754,149.399166 C407.028754,149.399166 399.928754,142.015166 397.514754,137.897166 L396.520754,137.897166 L396.520754,180.213166 L378.060754,180.213166 Z M416.116754,132.643166 C428.044754,132.643166 436.138754,123.413166 436.138754,110.207166 C436.138754,96.5751658 428.044754,87.7711658 415.974754,87.7711658 C403.762754,87.7711658 396.094754,97.5691658 396.094754,110.207166 C396.094754,124.123166 404.614754,132.643166 416.116754,132.643166 Z M507.701508,149.399166 C485.691508,149.399166 470.071508,132.927166 470.071508,110.633166 C470.071508,87.0611658 485.833508,71.0151658 507.701508,71.0151658 C531.699508,71.0151658 544.763508,88.7651658 544.763508,109.781166 L544.763508,115.603166 L487.963508,115.603166 C488.531508,126.963166 496.341508,134.631166 508.269508,134.631166 C517.357508,134.631166 524.315508,130.371166 526.871508,124.265166 L544.053508,124.265166 C540.361508,139.459166 527.013508,149.399166 507.701508,149.399166 Z M488.247508,102.539166 L527.155508,102.539166 C526.303508,92.4571658 518.493508,85.7831658 507.701508,85.7831658 C497.335508,85.7831658 489.383508,93.1671658 488.247508,102.539166 Z M564.638262,147.553166 L564.638262,72.8611658 L582.246262,72.8611658 L582.246262,81.9491658 L583.240262,81.9491658 C586.222262,76.4111658 593.606262,71.0151658 604.256262,71.0151658 C621.012262,71.0151658 631.236262,82.8011658 631.236262,98.7051658 L631.236262,147.553166 L612.776262,147.553166 L612.776262,103.533166 C612.776262,94.4451658 606.954262,88.3391658 598.434262,88.3391658 C589.488262,88.3391658 583.098262,95.4391658 583.098262,104.811166 L583.098262,147.553166 L564.638262,147.553166 Z M649.549016,147.553166 L649.549016,130.655166 L701.237016,65.4771658 L701.237016,64.4831658 L651.395016,64.4831658 L651.395016,48.1531658 L724.809016,48.1531658 L724.809016,64.9091658 L673.121016,130.087166 L673.121016,131.223166 L725.093016,131.223166 L725.093016,147.553166 L649.549016,147.553166 Z M775.07177,149.399166 C753.06177,149.399166 737.44177,132.927166 737.44177,110.633166 C737.44177,87.0611658 753.20377,71.0151658 775.07177,71.0151658 C799.06977,71.0151658 812.13377,88.7651658 812.13377,109.781166 L812.13377,115.603166 L755.33377,115.603166 C755.90177,126.963166 763.71177,134.631166 775.63977,134.631166 C784.72777,134.631166 791.68577,130.371166 794.24177,124.265166 L811.42377,124.265166 C807.73177,139.459166 794.38377,149.399166 775.07177,149.399166 Z M755.61777,102.539166 L794.52577,102.539166 C793.67377,92.4571658 785.86377,85.7831658 775.07177,85.7831658 C764.70577,85.7831658 756.75377,93.1671658 755.61777,102.539166 Z M832.008524,180.213166 L832.008524,72.8611658 L850.184524,72.8611658 L850.184524,82.3751658 L851.178524,82.3751658 C853.166524,79.2511658 859.982524,71.0151658 873.614524,71.0151658 C894.488524,71.0151658 908.830524,86.6351658 908.830524,109.923166 C908.830524,133.211166 894.630524,149.399166 874.182524,149.399166 C860.976524,149.399166 853.876524,142.015166 851.462524,137.897166 L850.468524,137.897166 L850.468524,180.213166 L832.008524,180.213166 Z M870.064524,132.643166 C881.992524,132.643166 890.086524,123.413166 890.086524,110.207166 C890.086524,96.5751658 881.992524,87.7711658 869.922524,87.7711658 C857.710524,87.7711658 850.042524,97.5691658 850.042524,110.207166 C850.042524,124.123166 858.562524,132.643166 870.064524,132.643166 Z M928.705278,180.213166 L928.705278,72.8611658 L946.881278,72.8611658 L946.881278,82.3751658 L947.875278,82.3751658 C949.863278,79.2511658 956.679278,71.0151658 970.311278,71.0151658 C991.185278,71.0151658 1005.52728,86.6351658 1005.52728,109.923166 C1005.52728,133.211166 991.327278,149.399166 970.879278,149.399166 C957.673278,149.399166 950.573278,142.015166 948.159278,137.897166 L947.165278,137.897166 L947.165278,180.213166 L928.705278,180.213166 Z M966.761278,132.643166 C978.689278,132.643166 986.783278,123.413166 986.783278,110.207166 C986.783278,96.5751658 978.689278,87.7711658 966.619278,87.7711658 C954.407278,87.7711658 946.739278,97.5691658 946.739278,110.207166 C946.739278,124.123166 955.259278,132.643166 966.761278,132.643166 Z M1058.34603,149.399166 C1036.33603,149.399166 1020.71603,132.927166 1020.71603,110.633166 C1020.71603,87.0611658 1036.47803,71.0151658 1058.34603,71.0151658 C1082.34403,71.0151658 1095.40803,88.7651658 1095.40803,109.781166 L1095.40803,115.603166 L1038.60803,115.603166 C1039.17603,126.963166 1046.98603,134.631166 1058.91403,134.631166 C1068.00203,134.631166 1074.96003,130.371166 1077.51603,124.265166 L1094.69803,124.265166 C1091.00603,139.459166 1077.65803,149.399166 1058.34603,149.399166 Z M1038.89203,102.539166 L1077.80003,102.539166 C1076.94803,92.4571658 1069.13803,85.7831658 1058.34603,85.7831658 C1047.98003,85.7831658 1040.02803,93.1671658 1038.89203,102.539166 Z M1133.45879,147.553166 C1120.39479,147.553166 1113.01079,139.743166 1113.01079,126.537166 L1113.01079,41.0531658 L1131.47079,41.0531658 L1131.47079,124.833166 C1131.47079,129.093166 1133.60079,131.365166 1137.43479,131.365166 L1140.41679,131.365166 L1140.41679,147.553166 L1133.45879,147.553166 Z M1167.39154,62.9211658 C1160.71754,62.9211658 1156.03154,58.8031658 1156.03154,52.1291658 C1156.03154,45.7391658 1160.71754,41.4791658 1167.39154,41.4791658 C1174.06554,41.4791658 1178.75154,45.7391658 1178.75154,52.1291658 C1178.75154,58.8031658 1174.06554,62.9211658 1167.39154,62.9211658 Z M1158.16154,147.553166 L1158.16154,72.8611658 L1176.62154,72.8611658 L1176.62154,147.553166 L1158.16154,147.553166 Z M1199.05229,147.553166 L1199.05229,72.8611658 L1216.66029,72.8611658 L1216.66029,81.9491658 L1217.65429,81.9491658 C1220.63629,76.4111658 1228.02029,71.0151658 1238.67029,71.0151658 C1255.42629,71.0151658 1265.65029,82.8011658 1265.65029,98.7051658 L1265.65029,147.553166 L1247.19029,147.553166 L1247.19029,103.533166 C1247.19029,94.4451658 1241.36829,88.3391658 1232.84829,88.3391658 C1223.90229,88.3391658 1217.51229,95.4391658 1217.51229,104.811166 L1217.51229,147.553166 L1199.05229,147.553166 Z" id="OpenZeppelin" fill="#282846" fill-rule="nonzero"></path>
            <polygon id="|-copy-5" fill="#282846" fill-rule="nonzero" opacity="0.9" points="1338.55263 150.495901 1328.94737 150.495901 1328.94737 47.8643216 1338.55263 47.8643216"></polygon>
        </g>
    </g>
</svg>
